<svg width="24" height="24" viewBox="0 0 266 218" fill="none" xmlns="http://www.w3.org/2000/svg">
<mask id="path-1-inside-1_7351_216419" fill="white">
<path d="M132.793 94.5729L136.36 84.5965C137.004 83.2013 137.741 81.8501 138.563 80.5584L147.698 66.2228C148.478 64.9984 149.318 63.8129 150.213 62.6765L157.793 51.0305L170.316 38.186C173.148 34.8441 176.338 31.844 179.825 29.2425L192.838 19.5353L209.766 12.6445C212.327 11.6013 214.956 10.7497 217.635 10.0974L223.343 8.70471C225.826 8.09122 228.369 7.78577 230.92 7.78577C234.228 7.78577 237.465 8.75131 240.26 10.5737L242.831 12.2485L245.797 12.3468C248.459 12.4348 251.01 13.4547 253.03 15.2383L253.103 15.303L260.924 17.555C263.198 18.21 265.062 19.8848 266 22.1135C266 24.0705 265.258 25.9524 263.93 27.3554L260.511 30.9639C258.398 33.1952 255.978 35.0926 253.329 36.5966L250.705 38.085L250.074 39.1696C248.23 42.3329 245.817 45.1052 242.967 47.3392L242.489 47.7145L240.892 50.2979L240.207 56.4044C239.908 58.2474 239.118 59.9688 237.923 61.3744L236.557 62.9819L234.96 66.2694V67.2531C234.96 69.0987 235.088 70.9444 235.342 72.7719L235.647 74.9593C236.238 76.9369 236.167 79.0622 235.445 80.9958C235.428 81.0424 235.405 81.089 235.375 81.1304L233.136 84.3558C231.969 85.707 231.393 87.488 231.539 89.2896L231.692 91.4847C231.742 92.2121 231.83 92.9369 231.954 93.6565L232.044 94.1898C232.308 95.73 232.049 97.3168 231.312 98.6861L229.715 101.383L229.524 101.723C228.283 103.925 226.917 106.048 225.433 108.085L224.923 108.787L222.641 109.962L222.301 110.058C219.184 110.933 216 111.518 212.782 111.805L207.117 112.312L212.86 115.667L218.462 118.869L222.198 121.913L225.466 125.757L227.956 129.281L229.358 131.522C229.564 133.109 230.075 134.636 230.862 136.013L231.224 136.648L231.846 140.331V141.374C231.846 142.174 231.881 142.974 231.951 143.769C231.984 144.131 231.878 144.494 231.657 144.778C231.058 145.55 230.397 146.264 229.677 146.916C228.643 147.856 227.795 148.99 227.177 150.261L226.553 155.813C226.351 157.602 225.524 159.254 224.226 160.46L221.401 163.222L220.13 167.291V170.488L220.017 172.427C219.914 174.182 218.867 175.732 217.305 176.447L214.762 178.337L213.207 181.533L212.219 185.023L212.078 189.819L212.52 192.9L212.46 193.306C212.349 194.054 211.929 194.717 211.31 195.129C210.863 195.424 210.342 195.582 209.811 195.582H208.611H205.532L202.689 196.314L201.032 197.777L198.78 201.434L197.832 205.7L196.765 208.869L196.501 209.141C195.91 209.749 195.11 210.088 194.277 210.088L191.671 209.48L187.998 207.774L184.207 207.896L179.704 208.871L176.98 210.091L174.61 211.432C173.516 211.432 172.434 211.196 171.435 210.738L170.819 210.456L167.146 206.92L158.616 199.726L155.549 195.716C153.823 193.459 151.632 191.624 149.137 190.337L146.649 186.801L142.146 177.415L132.01 154.726L131.042 151.242C130.639 149.792 130.667 148.252 131.12 146.818L132.01 144.007L132.8 136.712V94.5626L132.793 94.5729Z"/>
</mask>
<path d="M132.793 94.5729L136.36 84.5965C137.004 83.2013 137.741 81.8501 138.563 80.5584L147.698 66.2228C148.478 64.9984 149.318 63.8129 150.213 62.6765L157.793 51.0305L170.316 38.186C173.148 34.8441 176.338 31.844 179.825 29.2425L192.838 19.5353L209.766 12.6445C212.327 11.6013 214.956 10.7497 217.635 10.0974L223.343 8.70471C225.826 8.09122 228.369 7.78577 230.92 7.78577C234.228 7.78577 237.465 8.75131 240.26 10.5737L242.831 12.2485L245.797 12.3468C248.459 12.4348 251.01 13.4547 253.03 15.2383L253.103 15.303L260.924 17.555C263.198 18.21 265.062 19.8848 266 22.1135C266 24.0705 265.258 25.9524 263.93 27.3554L260.511 30.9639C258.398 33.1952 255.978 35.0926 253.329 36.5966L250.705 38.085L250.074 39.1696C248.23 42.3329 245.817 45.1052 242.967 47.3392L242.489 47.7145L240.892 50.2979L240.207 56.4044C239.908 58.2474 239.118 59.9688 237.923 61.3744L236.557 62.9819L234.96 66.2694V67.2531C234.96 69.0987 235.088 70.9444 235.342 72.7719L235.647 74.9593C236.238 76.9369 236.167 79.0622 235.445 80.9958C235.428 81.0424 235.405 81.089 235.375 81.1304L233.136 84.3558C231.969 85.707 231.393 87.488 231.539 89.2896L231.692 91.4847C231.742 92.2121 231.83 92.9369 231.954 93.6565L232.044 94.1898C232.308 95.73 232.049 97.3168 231.312 98.6861L229.715 101.383L229.524 101.723C228.283 103.925 226.917 106.048 225.433 108.085L224.923 108.787L222.641 109.962L222.301 110.058C219.184 110.933 216 111.518 212.782 111.805L207.117 112.312L212.86 115.667L218.462 118.869L222.198 121.913L225.466 125.757L227.956 129.281L229.358 131.522C229.564 133.109 230.075 134.636 230.862 136.013L231.224 136.648L231.846 140.331V141.374C231.846 142.174 231.881 142.974 231.951 143.769C231.984 144.131 231.878 144.494 231.657 144.778C231.058 145.55 230.397 146.264 229.677 146.916C228.643 147.856 227.795 148.99 227.177 150.261L226.553 155.813C226.351 157.602 225.524 159.254 224.226 160.46L221.401 163.222L220.13 167.291V170.488L220.017 172.427C219.914 174.182 218.867 175.732 217.305 176.447L214.762 178.337L213.207 181.533L212.219 185.023L212.078 189.819L212.52 192.9L212.46 193.306C212.349 194.054 211.929 194.717 211.31 195.129C210.863 195.424 210.342 195.582 209.811 195.582H208.611H205.532L202.689 196.314L201.032 197.777L198.78 201.434L197.832 205.7L196.765 208.869L196.501 209.141C195.91 209.749 195.11 210.088 194.277 210.088L191.671 209.48L187.998 207.774L184.207 207.896L179.704 208.871L176.98 210.091L174.61 211.432C173.516 211.432 172.434 211.196 171.435 210.738L170.819 210.456L167.146 206.92L158.616 199.726L155.549 195.716C153.823 193.459 151.632 191.624 149.137 190.337L146.649 186.801L142.146 177.415L132.01 154.726L131.042 151.242C130.639 149.792 130.667 148.252 131.12 146.818L132.01 144.007L132.8 136.712V94.5626L132.793 94.5729Z" fill="#F4F4F4" stroke="#F4F4F4" stroke-width="0.940109" mask="url(#path-1-inside-1_7351_216419)"/>
<mask id="path-2-inside-2_7351_216419" fill="white">
<path d="M133.208 94.5729L129.641 84.5965C128.997 83.2013 128.26 81.8501 127.437 80.5584L118.303 66.2228C117.523 64.9984 116.683 63.8129 115.787 62.6765L108.208 51.0305L95.6847 38.186C92.8521 34.8441 89.6623 31.844 86.1757 29.2425L73.1623 19.5353L56.2346 12.6445C53.6737 11.6013 51.0449 10.7497 48.3658 10.0974L42.6578 8.70471C40.1749 8.09122 37.6316 7.78577 35.0807 7.78577C31.7727 7.78577 28.5351 8.75131 25.7402 10.5737L23.1692 12.2485L20.2033 12.3468C17.5418 12.4348 14.9909 13.4547 12.9708 15.2383L12.8979 15.303L5.07683 17.555C2.8027 18.21 0.938614 19.8848 0.000274658 22.1135C0.000274658 24.0705 0.742386 25.9524 2.07063 27.3554L5.48936 30.9639C7.6025 33.1952 10.0225 35.0926 12.6715 36.5966L15.2953 38.085L15.9267 39.1696C17.7707 42.3329 20.1832 45.1052 23.0334 47.3392L23.5114 47.7145L25.1088 50.2979L25.793 56.4044C26.0924 58.2474 26.8823 59.9688 28.0772 61.3744L29.4432 62.9819L31.0406 66.2694V67.2531C31.0406 69.0987 30.9123 70.9444 30.6582 72.7719L30.3538 74.9593C29.7627 76.9369 29.8331 79.0622 30.5551 80.9958C30.5727 81.0424 30.5954 81.089 30.6255 81.1304L32.8645 84.3558C34.0317 85.707 34.6078 87.488 34.4619 89.2896L34.3084 91.4847C34.2581 92.2121 34.1701 92.9369 34.0468 93.6565L33.9562 94.1898C33.6921 95.73 33.9512 97.3168 34.6883 98.6861L36.2857 101.383L36.4769 101.723C37.7171 103.925 39.0831 106.048 40.5673 108.085L41.078 108.787L43.3597 109.962L43.6993 110.058C46.8161 110.933 50.0009 111.518 53.2184 111.805L58.8836 112.312L53.1404 115.667L47.5381 118.869L43.8024 121.913L40.5346 125.757L38.0441 129.281L36.6429 131.522C36.4366 133.109 35.926 134.636 35.1386 136.013L34.7763 136.648L34.155 140.331V141.374C34.155 142.174 34.1197 142.974 34.0493 143.769C34.0166 144.131 34.1223 144.494 34.3437 144.778C34.9424 145.55 35.604 146.264 36.3234 146.916C37.3574 147.856 38.2051 148.99 38.824 150.261L39.4479 155.813C39.6491 157.602 40.4767 159.254 41.7748 160.46L44.5999 163.222L45.8702 167.291V170.488L45.9835 172.427C46.0866 174.182 47.1331 175.732 48.6953 176.447L51.2386 178.337L52.7933 181.533L53.7819 185.023L53.9228 189.819L53.48 192.9L53.5404 193.306C53.6511 194.054 54.0712 194.717 54.69 195.129C55.1378 195.424 55.6586 195.582 56.1894 195.582H57.3893H60.4684L63.3111 196.314L64.9689 197.777L67.2204 201.434L68.1688 205.7L69.2354 208.869L69.4996 209.141C70.0907 209.749 70.8907 210.088 71.7234 210.088L74.3296 209.48L78.0024 207.774L81.7934 207.896L86.2964 208.871L89.0208 210.091L91.3906 211.432C92.4848 211.432 93.5666 211.196 94.5653 210.738L95.1816 210.456L98.8544 206.92L107.385 199.726L110.451 195.716C112.177 193.459 114.368 191.624 116.864 190.337L119.352 186.801L123.855 177.415L133.99 154.726L134.959 151.242C135.361 149.792 135.334 148.252 134.881 146.818L133.99 144.007L133.2 136.712V94.5626L133.208 94.5729Z"/>
</mask>
<path d="M133.208 94.5729L129.641 84.5965C128.997 83.2013 128.26 81.8501 127.437 80.5584L118.303 66.2228C117.523 64.9984 116.683 63.8129 115.787 62.6765L108.208 51.0305L95.6847 38.186C92.8521 34.8441 89.6623 31.844 86.1757 29.2425L73.1623 19.5353L56.2346 12.6445C53.6737 11.6013 51.0449 10.7497 48.3658 10.0974L42.6578 8.70471C40.1749 8.09122 37.6316 7.78577 35.0807 7.78577C31.7727 7.78577 28.5351 8.75131 25.7402 10.5737L23.1692 12.2485L20.2033 12.3468C17.5418 12.4348 14.9909 13.4547 12.9708 15.2383L12.8979 15.303L5.07683 17.555C2.8027 18.21 0.938614 19.8848 0.000274658 22.1135C0.000274658 24.0705 0.742386 25.9524 2.07063 27.3554L5.48936 30.9639C7.6025 33.1952 10.0225 35.0926 12.6715 36.5966L15.2953 38.085L15.9267 39.1696C17.7707 42.3329 20.1832 45.1052 23.0334 47.3392L23.5114 47.7145L25.1088 50.2979L25.793 56.4044C26.0924 58.2474 26.8823 59.9688 28.0772 61.3744L29.4432 62.9819L31.0406 66.2694V67.2531C31.0406 69.0987 30.9123 70.9444 30.6582 72.7719L30.3538 74.9593C29.7627 76.9369 29.8331 79.0622 30.5551 80.9958C30.5727 81.0424 30.5954 81.089 30.6255 81.1304L32.8645 84.3558C34.0317 85.707 34.6078 87.488 34.4619 89.2896L34.3084 91.4847C34.2581 92.2121 34.1701 92.9369 34.0468 93.6565L33.9562 94.1898C33.6921 95.73 33.9512 97.3168 34.6883 98.6861L36.2857 101.383L36.4769 101.723C37.7171 103.925 39.0831 106.048 40.5673 108.085L41.078 108.787L43.3597 109.962L43.6993 110.058C46.8161 110.933 50.0009 111.518 53.2184 111.805L58.8836 112.312L53.1404 115.667L47.5381 118.869L43.8024 121.913L40.5346 125.757L38.0441 129.281L36.6429 131.522C36.4366 133.109 35.926 134.636 35.1386 136.013L34.7763 136.648L34.155 140.331V141.374C34.155 142.174 34.1197 142.974 34.0493 143.769C34.0166 144.131 34.1223 144.494 34.3437 144.778C34.9424 145.55 35.604 146.264 36.3234 146.916C37.3574 147.856 38.2051 148.99 38.824 150.261L39.4479 155.813C39.6491 157.602 40.4767 159.254 41.7748 160.46L44.5999 163.222L45.8702 167.291V170.488L45.9835 172.427C46.0866 174.182 47.1331 175.732 48.6953 176.447L51.2386 178.337L52.7933 181.533L53.7819 185.023L53.9228 189.819L53.48 192.9L53.5404 193.306C53.6511 194.054 54.0712 194.717 54.69 195.129C55.1378 195.424 55.6586 195.582 56.1894 195.582H57.3893H60.4684L63.3111 196.314L64.9689 197.777L67.2204 201.434L68.1688 205.7L69.2354 208.869L69.4996 209.141C70.0907 209.749 70.8907 210.088 71.7234 210.088L74.3296 209.48L78.0024 207.774L81.7934 207.896L86.2964 208.871L89.0208 210.091L91.3906 211.432C92.4848 211.432 93.5666 211.196 94.5653 210.738L95.1816 210.456L98.8544 206.92L107.385 199.726L110.451 195.716C112.177 193.459 114.368 191.624 116.864 190.337L119.352 186.801L123.855 177.415L133.99 154.726L134.959 151.242C135.361 149.792 135.334 148.252 134.881 146.818L133.99 144.007L133.2 136.712V94.5626L133.208 94.5729Z" fill="#F4F4F4" stroke="#F4F4F4" stroke-width="0.940109" mask="url(#path-2-inside-2_7351_216419)"/>
</svg>
