<svg version="1.2" xmlns="http://www.w3.org/2000/svg" viewBox="0 0 1538 1532" width="24" height="24">
	<title>moneylion-dark-solid_579b1476-svg</title>
	<style>
		.s0 { fill: #00e5c4 } 
	</style>
	<path id="Layer" fill-rule="evenodd" class="s0" d="m552.6 75.5c56.6-33.4 126.8-75 216.4-75 89.6 0 160 41.6 216.4 75 21.3 12.5 41.4 24.4 57.9 31.2 18 7.5 41.7 13.7 66.8 20.2 62.9 16.4 141.2 36.8 202.4 97.8 61.2 60.9 81.7 139 98.2 201.8 6.5 24.9 12.7 48.5 20.2 66.5 6.9 16.4 18.8 36.4 31.5 57.6 33.4 56.2 75.2 126.2 75.2 215.5 0 89.2-41.8 159.3-75.3 215.6-12.6 21.1-24.5 41.1-31.4 57.5-7.5 18.1-13.7 41.6-20.2 66.6-16.5 62.7-37 140.7-98.2 201.7-61.2 60.9-139.5 81.3-202.7 97.7-25 6.6-48.5 12.7-66.6 20.2-16.4 6.7-36.4 18.6-57.8 31.2-56.5 33.4-126.8 75.1-216.4 75.1-89.6 0-159.9-41.7-216.4-75.1-21.3-12.6-41.3-24.4-57.8-31.2-18-7.5-41.6-13.6-66.8-20.2-62.9-16.5-141.3-36.9-202.5-97.8-61.1-61-81.6-139.1-98.1-201.8-6.6-24.9-12.7-48.5-20.3-66.5-6.8-16.4-18.7-36.4-31.3-57.6-33.6-56.3-75.4-126.2-75.4-215.5 0-89.3 41.8-159.2 75.4-215.7 12.7-21.1 24.5-41 31.3-57.4 7.6-18 13.8-41.6 20.3-66.5 16.4-62.7 37-140.8 98.1-201.7 61.2-61 139.6-81.4 202.6-97.9 25-6.6 48.6-12.7 66.7-20.2 16.5-6.8 36.6-18.6 57.8-31.2zm13.9 433.5c20.1 0 40.2-1 60.1-2.1 50.4-2.9 101.2-6.9 150.9 1.1 8.3 1.2 16.4 2.9 24.5 5 41.1 10.4 80.1 30.5 106.5 63.2 24.5 30.3 37.6 70.1 68.2 94.1 21.1 16.6 48.3 23.7 75 24.7 26.8 1.1 53.3-3.4 79.7-7.8 5.7-1 11.8-2.3 15.5-6.7 4.4-5.4 3.3-13.3 1.3-20-16-50.5-73.8-80.3-86.4-131.8-2.2-8.8-2.1-19.8 5.4-24.8 6-4.1 13.3-2.4 20.7-0.7 4.7 1 9.5 2.1 14.2 1.7 13.7-1.3 22.7-16.7 21-30.4-1.8-13.7-11.3-25.1-22.1-33.8-22-17.9-49.5-27.5-77.1-34.2-61.2-15-124.9-17.5-187.9-16.7-116.1 1.6-232.3 14.2-345.2 41.4-22.5 5.4-76.4 25.9-43.5 55.2 8 7.1 18.6 10.5 28.9 13 29.5 7.4 59.8 9.6 90.3 9.6zm122.7 273.6c10.7 0 21.5-0.4 32.2-1.5 51.3-5.1 102.1-23.8 140.4-58.1 4.9-4.4 9.8-9.4 11.4-15.7 0.6-2.4 0.8-4.7 0.6-7-0.2-4.4-1.6-8.9-3-13.2-7.4-23.6-16.1-48.9-36.3-63.3-17.5-12.4-40.2-14.2-61.5-14.6-51.9-1-103.8 3.5-154.7 13.4-28.6 5.7-62.3 14.2-82.1 37.3-17.7 20.8-26 62.2-6.9 84.5 9.8 11.4 24.9 16.4 39.4 20.4 39.2 10.7 79.8 17.8 120.5 17.8zm518.3 164.4c0.5 0.1 1 0.1 1.5 0.1 2.5 0 5-0.8 7.3-2 14.5-6.6 23.7-21.9 26.8-37.4 0.8-3.9 1.3-7.9 1.5-11.7 0.7-11.9-0.9-24-2.7-35.8-5.7-36.7-16.1-76-45.6-98.8-3.1-2.5-6.9-4.8-10.9-4.3-2.7 0.4-5.1 2.1-7.3 3.9-39.3 32.5-41.7 104.7-15.5 146.5 9.2 14.5 22.6 25.8 36.7 35.6 2.4 1.7 5.1 3.5 8.2 3.8zm-279.2 17.9h0.3c14.2 0 27.5-4.4 40-11 18.9-9.9 37.9-19.6 56.5-29.9 19-10.6 30-26.3 29-48.9-0.6-13.2-0.9-26.4-1.2-39.7-0.5-22.9-13.1-36.6-33.8-44q-26.1-9.3-52.4-17.9c-22.6-7.5-44.5-5.4-65.7 4.9-23.8 11.6-47.8 22.9-71.2 35.4-9.5 5.2-18.3 12.2-26.4 19.5-7.7 7-10.8 16.6-10.5 27.2 0.3 7.7 0 15.3 0 22.5-0.4 8-0.7 15.6-1.2 23.2-0.8 10.3 2.7 19.2 11.1 24.6 8.4 5.5 17.8 10 27.5 12.9 22.2 6.8 44.9 12.6 67.5 17.9 9.9 2.3 20.3 3.2 30.4 3.2zm101.3 199.7c6.9 3.4 14.7 5 22 7.4 11-1.3 20.8-4.2 29.9-9.2 17.1-9.3 34.2-18.8 51.1-28.3 16.9-9.5 26.5-24.4 29.7-43.2 3.4-20.3 6.6-40.7 9.2-61.2 2.2-17.5-2-33.1-17.3-44.1-9.2-6.6-18.3-13.2-27.2-20.2-14.1-11-29.2-10.9-44-2.9-24.2 12.9-48.1 26.3-71.5 40.2-14.9 8.9-26.1 21.4-31 38.5-5.6 19.7-10.9 39.4-16.2 59.2-4.5 17.1 1.5 30.1 17.4 38.4 16 8.4 31.8 17.3 48 25.3z"/>
</svg>