<svg width="48" height="48" viewBox="0 0 575 575" fill="none" xmlns="http://www.w3.org/2000/svg">
<g clip-path="url(#clip0_1_114)">
<path d="M285.078 502C277.885 502 270.693 500.198 264.219 496.232L196.245 454.415C174.667 441.077 161 416.923 161 391.328V150.158C161 135.377 168.553 122.399 181.5 115.19C194.447 107.98 209.552 108.34 221.78 115.91L289.754 157.367C311.693 170.706 325 194.859 325 220.455V461.625C325 476.405 317.447 489.383 304.499 496.593C298.745 500.198 291.912 502 285.078 502ZM201.28 138.261C198.403 138.261 196.245 139.343 195.167 139.703C193.368 140.785 189.053 144.029 189.053 150.158V391.328C189.053 407.19 197.324 422.331 210.991 430.622L278.964 472.079C284.359 475.323 289.394 473.521 291.192 472.439C292.991 471.358 297.307 468.114 297.307 461.985V220.815C297.307 204.953 289.035 189.813 275.368 181.52L207.395 140.064C205.237 138.622 203.079 138.261 201.28 138.261Z" fill="#0E9F6E"/>
<path d="M354.079 383C346.886 383 339.693 381.201 333.22 377.243L265.246 335.508C243.307 322.194 230 298.089 230 272.544V112.079C230 97.3276 237.553 84.3752 250.5 77.1793C263.447 69.9836 278.553 70.3434 290.781 77.899L358.755 119.275C380.693 132.587 394 156.693 394 182.238V342.704C394 357.455 386.447 370.407 373.5 377.603C367.386 381.201 360.912 383 354.079 383ZM269.921 99.8461C267.044 99.8461 264.886 100.925 263.807 101.285C262.009 102.365 257.693 105.603 257.693 111.719V272.184C257.693 288.015 265.965 303.126 279.632 311.401L347.605 352.778C353 356.016 358.035 354.217 359.833 353.138C361.632 352.058 365.947 348.82 365.947 342.704V182.238C365.947 166.407 357.676 151.296 344.009 143.021L276.035 101.645C273.877 100.206 271.719 99.8461 269.921 99.8461Z" fill="#0E9F6E"/>
</g>
<defs>
<clipPath id="clip0_1_114">
<rect width="575" height="575" fill="white"/>
</clipPath>
</defs>
</svg>
